<?xml version="1.0" encoding="iso-8859-1"?>
<!-- Generator: Adobe Illustrator 19.0.0, SVG Export Plug-In . SVG Version: 6.00 Build 0)  -->
<svg version="1.1" id="Layer_1" xmlns="http://www.w3.org/2000/svg" xmlns:xlink="http://www.w3.org/1999/xlink" x="0px" y="0px"
	 viewBox="0 0 512 512" style="enable-background:new 0 0 512 512;" xml:space="preserve">
<polygon style="fill:#FFE777;" points="410.725,455.736 410.725,112.527 332.999,56.264 376.967,455.736 "/>
<polygon style="fill:#FFF1B1;" points="376.967,455.736 376.967,112.527 298.198,0 45.011,0 45.011,455.736 "/>
<polygon style="fill:#FEDC3D;" points="410.725,112.527 298.198,0 298.198,112.527 "/>
<g>
	<path style="fill:#BFA52E;" d="M340.396,191.297H115.341c-4.661,0-8.44-3.779-8.44-8.44s3.779-8.44,8.44-8.44h225.055
		c4.662,0,8.44,3.779,8.44,8.44S345.058,191.297,340.396,191.297z"/>
	<path style="fill:#BFA52E;" d="M340.396,236.308H115.341c-4.661,0-8.44-3.779-8.44-8.44c0-4.661,3.779-8.44,8.44-8.44h225.055
		c4.662,0,8.44,3.779,8.44,8.44C348.835,232.529,345.058,236.308,340.396,236.308z"/>
	<path style="fill:#BFA52E;" d="M227.868,281.319H115.341c-4.661,0-8.44-3.779-8.44-8.44c0-4.661,3.779-8.44,8.44-8.44h112.527
		c4.661,0,8.44,3.779,8.44,8.44C236.308,277.54,232.529,281.319,227.868,281.319z"/>
</g>
<path style="fill:#027372;" d="M354.462,286.945v202.549l56.265,7.448c33.633-19.456,56.263-55.818,56.263-97.47
	C466.989,337.324,416.611,286.945,354.462,286.945z"/>
<path style="fill:#02ACAB;" d="M354.462,286.945c43.503,0,78.769,50.379,78.769,112.527c0,30.657-8.581,58.449-22.499,78.744
	l-112.535,18.726c-33.632-19.457-56.263-55.82-56.263-97.47C241.934,337.324,292.313,286.945,354.462,286.945z"/>
<path style="fill:#FEDC3D;" d="M352.523,511.975c0.646,0.011,1.291,0.025,1.939,0.025c20.497,0,39.713-5.482,56.265-15.057
	l-0.001-73.839l-67.516-11.253L352.523,511.975z"/>
<path style="fill:#FFF1B1;" d="M298.198,423.103l-0.002,73.839C314.747,506.518,333.965,512,354.462,512V411.851L298.198,423.103z"
	/>
<polygon style="fill:#FFDBCC;" points="382.593,372.466 410.725,423.103 376.967,423.103 343.209,361.213 "/>
<polygon style="fill:#FFFFFF;" points="365.714,361.213 376.967,423.103 298.198,423.103 326.33,372.466 "/>
<polygon style="fill:#272727;" points="326.33,372.466 382.593,372.466 354.462,321.829 "/>
<g>
</g>
<g>
</g>
<g>
</g>
<g>
</g>
<g>
</g>
<g>
</g>
<g>
</g>
<g>
</g>
<g>
</g>
<g>
</g>
<g>
</g>
<g>
</g>
<g>
</g>
<g>
</g>
<g>
</g>
</svg>
